<svg version="1" xmlns="http://www.w3.org/2000/svg" viewBox="0 0 50 50"><path fill="#FF6B6B" d="M22.736 8.77c5.227 0 7.277-1.88 6.96-3.76-.45-2.675-2.942-3.613-6.364-3.613-3.316 0-5.683 1.815-5.052 4.48.365 1.542 2.023 2.892 4.456 2.892v.001zm2.794 14.79c8.566 0 11.924-3.77 11.406-7.54-.737-5.37-4.823-7.25-10.43-7.25-5.435 0-9.315 3.642-8.28 8.99.6 3.092 3.316 5.8 7.304 5.8zm-9.352 10.937l14.677-5.342c.32-2.94-3.58-5.594-7.72-5.594-7.825 0-10.833 4.22-9.977 7.826.293 1.24 1.225 2.383 3.02 3.11z"/><path fill="#F88" d="M22.736 8.77c5.227 0 7.277-1.88 6.96-3.76-.45-2.675-2.942-3.613-6.364-3.613-3.316 0-5.684 1.815-5.052 4.48.365 1.542 2.023 2.892 4.456 2.892v.001zM18.62 19.068l17.254-6.28C34.18 9.875 30.79 8.77 26.504 8.77c-5.433 0-9.313 3.643-8.277 8.99.086.447.222.884.393 1.308z"/><path fill="#444" d="M38.008 15.873c-.623-4.54-3.437-7.202-8.363-7.956.125-.117.238-.234.334-.35.668-.79.946-1.76.783-2.735C30.26 1.835 27.76.316 23.33.316c-2.313 0-4.262.786-5.345 2.156-.807 1.02-1.077 2.32-.76 3.656.363 1.53 1.587 2.725 3.214 3.314a8.079 8.079 0 0 0-1.683 1.516c-1.542 1.87-2.108 4.358-1.595 7.007a8.078 8.078 0 0 0 2.842 4.758c-2.924.482-5.228 1.67-6.642 3.458-1.267 1.603-1.714 3.54-1.26 5.456.24 1.016 1.112 2.987 4.168 4.04a10.049 10.049 0 0 0-2.513 2.256c-1.473 1.863-2.1 4.04-1.678 5.82.68 2.868 4.227 5.932 12.147 5.932 4.54 0 11.742-1.814 11.742-6.68 0-4.226-4.096-8.787-10.713-8.787a1.081 1.081 0 1 0 0 2.162c5.113 0 8.548 3.426 8.548 6.624 0 1.414-2.412 4.515-9.578 4.515-6.665 0-9.575-2.3-10.042-4.267-.267-1.126.22-2.65 1.27-3.98 1.433-1.81 3.56-2.892 5.688-2.892a1.08 1.08 0 1 0 0-2.163c-3.943 0-6.47-1.123-6.935-3.08-.298-1.258.004-2.542.85-3.614 1.47-1.857 4.336-2.88 8.074-2.88 2.254 0 4.602.928 5.84 2.31.425.472.91 1.217.817 2.083a1.082 1.082 0 1 0 2.151.233c.143-1.315-.326-2.616-1.356-3.764a7.718 7.718 0 0 0-1.303-1.133c3.908-.596 6.035-2.087 7.17-3.387 1.26-1.442 1.813-3.258 1.558-5.113l.002.001zM19.333 5.628c-.166-.7-.048-1.31.35-1.814.662-.835 2.025-1.334 3.648-1.334 4.34 0 5.103 1.547 5.3 2.71.058.35-.04.67-.302.98-.386.455-1.703 1.516-5.592 1.516-2.003 0-3.168-1.066-3.404-2.058zM34.82 19.564c-1.64 1.88-4.94 2.915-9.29 2.915-3.633 0-5.782-2.554-6.24-4.926-.395-2.033 0-3.838 1.14-5.22 1.3-1.578 3.516-2.483 6.075-2.483 5.794 0 8.768 2.008 9.36 6.317.17 1.244-.19 2.42-1.045 3.397z"/></svg>