<svg version="1" xmlns="http://www.w3.org/2000/svg" viewBox="0 0 50 50"><path fill="#46B8B0" d="M18.076 27.444l-1.205 3.311-2.427 2.788-2.377 6.532 9.98-3.632.043-.117-.067-3.696 1.202-3.304c6.464.995 12.943-2.656 15.265-9.036 1.902-5.226.491-10.843-3.153-14.571-.289-.295-.795-.171-.936.217l-1.259 3.458-3.892-4.639-5.962 1.051 1.26-3.462c.141-.386-.166-.804-.575-.764-5.194.512-9.893 3.915-11.792 9.15-2.27 6.262.358 13.317 5.895 16.714zm1.419-11.216l1.722-4.732 3.891 4.637 5.962-1.051-1.722 4.733a.572.572 0 0 1-.734.342l-8.778-3.195a.573.573 0 0 1-.341-.734z"/><path fill="#4ECDC4" d="M29.96 5.932l-.987-1.177-5.963 1.052 1.26-3.462c.141-.386-.166-.804-.574-.764-5.194.512-9.893 3.915-11.792 9.15a13.565 13.565 0 0 0-.538 1.969L29.96 5.932z"/><g fill="#444"><path d="M35.94 5.127a1.39 1.39 0 0 0-1.294-.385 1.415 1.415 0 0 0-1.039.904l-.758 2.084-3.265-3.891-5.002.882.76-2.088a1.413 1.413 0 0 0-.215-1.357A1.393 1.393 0 0 0 23.891.74c-5.659.558-10.567 4.367-12.503 9.703-2.309 6.367.071 13.546 5.663 17.345l-.921 2.531-2.427 2.787-3.572 9.814a4.877 4.877 0 0 0 .164 3.756 4.88 4.88 0 0 0 2.772 2.54.845.845 0 0 0 .578-1.588 3.201 3.201 0 0 1-1.819-1.666 3.2 3.2 0 0 1-.107-2.465l3.465-9.52 2.427-2.787 1.495-4.106-.588-.361c-5.326-3.268-7.657-9.873-5.541-15.706 1.663-4.586 5.803-7.898 10.626-8.545l-.834 2.292a.493.493 0 0 0-.143.2l-2.498 6.863a.49.49 0 0 0-.019.245l-1.407 3.867a1.42 1.42 0 0 0 .847 1.816l8.778 3.195a1.427 1.427 0 0 0 1.084-.047 1.41 1.41 0 0 0 .733-.8l1.407-3.866a.498.498 0 0 0 .149-.207l2.567-7.054a.486.486 0 0 0 .017-.25l.761-2.09c3.274 3.592 4.318 8.786 2.652 13.362-2.136 5.87-8.171 9.441-14.343 8.491l-.685-.106-1.493 4.103.07 3.852a.845.845 0 0 0 .844.829h.016a.845.845 0 0 0 .829-.86l-.065-3.539.918-2.521c6.727.709 13.166-3.267 15.497-9.672 1.937-5.323.625-11.387-3.345-15.448zm-3.445 4.809c.017.02.037.034.055.052a.789.789 0 0 0 .213.156l-1.498 4.116c-.038-.009-.08-.001-.119-.005-.059-.005-.115-.011-.172-.004-.017.002-.032-.004-.049-.001l-5.482.967-3.578-4.264c-.009-.011-.022-.015-.032-.025a.799.799 0 0 0-.16-.127c-.026-.017-.046-.043-.073-.057l1.497-4.113c.026.006.054-.001.081.003.076.01.149.015.223.005.011-.002.022.003.034.001l5.482-.967 3.578 4.263zm-3.847 9.334l-8.267-3.008 1.129-3.102 3.264 3.89 5.002-.882-1.128 3.102z"/><path d="M15.725 41.916a2.126 2.126 0 0 0-2.718 1.267 2.124 2.124 0 0 0 1.994 2.848c.305 0 .61-.067.895-.2a2.104 2.104 0 0 0 1.097-1.197 2.124 2.124 0 0 0-1.268-2.718zm.315 2.372a1.1 1.1 0 0 1-.573.625 1.093 1.093 0 0 1-.847.036 1.097 1.097 0 0 1-.625-.573 1.11 1.11 0 0 1 1.383-1.508c.574.21.871.846.662 1.42zm10.415-31.851a2.123 2.123 0 0 0 2.718-1.268 2.123 2.123 0 0 0-2.89-2.647 2.102 2.102 0 0 0-1.096 1.197 2.104 2.104 0 0 0 .071 1.622c.239.513.664.903 1.197 1.096zm-.316-2.372c.101-.278.304-.5.573-.625a1.097 1.097 0 0 1 .846-.038 1.108 1.108 0 1 1-1.419.663z"/></g></svg>