<?xml version="1.0" encoding="utf-8"?>
<!-- Generator: Adobe Illustrator 19.0.0, SVG Export Plug-In . SVG Version: 6.00 Build 0)  -->
<svg version="1.1" id="Layer_1" xmlns="http://www.w3.org/2000/svg" xmlns:xlink="http://www.w3.org/1999/xlink" x="0px" y="0px"
	 viewBox="-809 340.5 20 20" style="enable-background:new -809 340.5 20 20;" xml:space="preserve">
<style type="text/css">
	.st0{fill:#FFFFFF;}
	.st1{fill:#F3735E;}
</style>
<g>
	<circle class="st0" cx="-799" cy="350.5" r="7.1"/>
	<path class="st1" d="M-791.9,357.6c3.9-3.9,3.9-10.2,0-14.1c-3.9-3.9-10.2-3.9-14.1,0c-3.9,3.9-3.9,10.2,0,14.1
		C-802.2,361.5-795.8,361.5-791.9,357.6z M-800.1,345.7c0.3-0.5,0.8-0.8,1.4-0.7c0.6,0.1,0.9,0.7,0.9,1.3c0,0.4,0,0.8-0.1,1.2
		c-0.1,1.5-0.2,3-0.2,4.4c0,0.5-0.4,0.9-0.9,0.9c-0.5,0-0.9-0.4-0.9-0.9c0-0.3,0-0.6,0-0.9c-0.1-0.9-0.1-1.9-0.2-2.9
		c0-0.6-0.1-1.2-0.1-1.8C-800.2,346.1-800.2,345.9-800.1,345.7z M-799,353.6c0.7,0,1.2,0.5,1.2,1.2c0,0.7-0.5,1.2-1.2,1.2
		c-0.7,0-1.2-0.5-1.2-1.2C-800.2,354.2-799.7,353.6-799,353.6z"/>
</g>
</svg>
