<svg version="1" xmlns="http://www.w3.org/2000/svg" viewBox="0 0 50 50"><path fill="#E56060" d="M41.847 31.37V3.817a.886.886 0 0 0-.887-.886H9.04a.887.887 0 0 0-.887.886v39.817L41.847 31.37z"/><path fill="#FF6B6B" d="M39.951 2.93H9.039a.886.886 0 0 0-.886.886v10.687L39.951 2.93z"/><path fill="#444" d="M31.21 47.967H9.04c-.984 0-1.784-.8-1.784-1.783V3.817c0-.984.8-1.784 1.784-1.784h31.921c.984 0 1.784.8 1.784 1.784v27.549a.897.897 0 1 1-1.794 0V3.817L9.04 3.828l.01 42.356 22.16-.011a.897.897 0 1 1 0 1.794z"/><path fill="#444" d="M21.998 43.182H12.04V26.235h9.958v16.947zm-8.881-1.076h7.804V27.312h-7.804v14.794zm24.845-8.632H24.463v-7.239h13.499v7.239zM25.54 32.397h11.345v-5.085H25.54v5.085zm12.422 10.842H24.463v-7.295h13.499v7.295zM25.54 42.162h11.345V37.02H25.54v5.142zm12.422-18.396H12.041V6.818h25.921v16.948zm-24.844-1.077h23.767V7.895H13.118v14.794z"/></svg>