<svg version="1" xmlns="http://www.w3.org/2000/svg" viewBox="0 0 50 50"><path fill="#FCC34F" d="M6.517 32.919a6.027 6.027 0 0 0-.313 1.922 6.098 6.098 0 0 0 6.098 6.098c.168 0 .333-.012.497-.025.008.153.028.302.046.453l33.414-12.162a8.888 8.888 0 0 0 .653-3.326c0-4.417-3.199-8.079-7.404-8.818.001-.048.007-.096.007-.144 0-4.084-3.096-7.436-7.067-7.86a.518.518 0 0 1-.461-.439 7.078 7.078 0 0 0-13.973 0 .52.52 0 0 1-.461.439c-3.972.424-7.067 3.776-7.067 7.86 0 .048.006.096.007.144-4.205.739-7.404 4.401-7.404 8.818 0 2.859 1.343 5.4 3.428 7.04z"/><path fill="#FDCF72" d="M3.819 21.859l31.837-11.588a7.898 7.898 0 0 0-3.437-1.215.517.517 0 0 1-.461-.439 7.078 7.078 0 0 0-13.972 0 .52.52 0 0 1-.461.439c-3.971.424-7.067 3.776-7.067 7.86 0 .048.006.096.007.144a8.98 8.98 0 0 0-6.446 4.799z"/><g fill="#444"><path d="M18.741 29.931c-.558 0-1.097.113-1.602.335a.654.654 0 0 0 .526 1.196 2.683 2.683 0 0 1 3.758 2.456c0 .935-.475 1.787-1.27 2.279a.654.654 0 0 0 .689 1.111 3.965 3.965 0 0 0 1.888-3.39 3.994 3.994 0 0 0-3.989-3.987z"/><path d="M44.757 33.549c-.015-.082-.023-.166-.041-.248A9.98 9.98 0 0 0 48 25.879c0-4.583-3.073-8.527-7.426-9.696a8.973 8.973 0 0 0-7.591-8.154A8.123 8.123 0 0 0 25 1.583a8.125 8.125 0 0 0-7.984 6.446 8.975 8.975 0 0 0-7.59 8.154A10.026 10.026 0 0 0 2 25.879a9.983 9.983 0 0 0 3.284 7.422c-.018.081-.026.164-.041.246a7.702 7.702 0 0 0-.044.265c-.05.341-.085.685-.085 1.029 0 .495.053.977.148 1.444l.009.036c.046.217.1.43.165.639.012.04.028.078.041.117.059.18.122.357.194.53.023.054.049.105.073.158.07.155.141.309.221.459.032.06.069.118.103.178.079.137.159.274.246.405.042.063.088.124.132.185.087.122.175.243.269.359.052.064.107.125.16.187.094.108.189.215.288.317.061.062.124.122.187.182a6.724 6.724 0 0 0 1.08.849 6.989 6.989 0 0 0 2.24.947 6.977 6.977 0 0 0 1.03.164c.045.004.088.012.134.015a7.845 7.845 0 0 0 7.713 6.404 7.882 7.882 0 0 0 5.452-2.211 7.878 7.878 0 0 0 5.452 2.211 1.088 1.088 0 1 0 0-2.176 5.624 5.624 0 0 1-4.574-2.326l-.222-.302V29.668h2.695c.855 0 1.549-.691 1.549-1.54v-7.654c0-.855-.695-1.55-1.549-1.55h-.576l.142-2.442a.652.652 0 0 0-.031-.217 7.137 7.137 0 0 0 4.229-6.185c.073.019.141.053.217.061a6.798 6.798 0 0 1 6.084 6.598c-.155-.007-.307-.02-.465-.02a9.562 9.562 0 0 0-5.037 1.429 5.025 5.025 0 0 0-3.511-1.429.653.653 0 0 0 0 1.306 3.745 3.745 0 0 1 3.331 5.442.654.654 0 0 0 1.164.595c.361-.706.552-1.5.552-2.298 0-.939-.263-1.816-.711-2.57a8.263 8.263 0 0 1 4.213-1.17c.501 0 .975.043 1.448.13h.011a7.85 7.85 0 0 1 6.412 7.726 7.81 7.81 0 0 1-2.615 5.833c-.044.021-.09.035-.13.066a8.184 8.184 0 0 1-5.126 1.776.653.653 0 0 0 0 1.306 9.49 9.49 0 0 0 4.603-1.171c.016.065.036.129.049.195.015.074.033.148.044.223.035.24.058.484.058.735a5.016 5.016 0 0 1-4.497 4.983l-.022.001a4.941 4.941 0 0 1-.489.025c-.095 0-.189-.008-.283-.015a7.386 7.386 0 0 0-6.04-6.561.657.657 0 0 0-.759.527.654.654 0 0 0 .527.759 6.083 6.083 0 0 1 5.003 6.001c0 .032.014.059.018.089-.007.026-.016.051-.021.078-.006.033-.024.061-.027.095l.001.006c-.001.01-.007.018-.007.028-.035.6.423 1.115 1.024 1.15a7.06 7.06 0 0 0 1.265-.016l.032-.002c3.62-.368 6.454-3.435 6.454-7.15a7.13 7.13 0 0 0-.085-1.03 5.714 5.714 0 0 0-.042-.262zM24.35 43.604l-.227.309a5.624 5.624 0 0 1-4.574 2.327 5.67 5.67 0 0 1-5.661-5.365c0-.006.003-.011.002-.017 0-.007-.005-.013-.005-.02l-.021-.398c.058-2.903 2.134-5.366 4.992-5.879a.653.653 0 1 0-.232-1.286 7.385 7.385 0 0 0-6.04 6.561c-.094.007-.187.015-.282.015-.165 0-.328-.009-.489-.025l-.022-.001a5.015 5.015 0 0 1-4.497-4.983c0-.251.023-.495.058-.734.012-.078.03-.154.046-.232.013-.064.032-.125.047-.188a9.49 9.49 0 0 0 4.603 1.171.653.653 0 0 0 0-1.306 8.182 8.182 0 0 1-5.126-1.776c-.04-.031-.086-.045-.13-.065a7.81 7.81 0 0 1-2.616-5.834 7.851 7.851 0 0 1 6.413-7.726h.011a7.82 7.82 0 0 1 1.447-.13c1.499 0 2.937.417 4.213 1.17a5.006 5.006 0 0 0-.711 2.57c0 .798.191 1.592.552 2.298a.654.654 0 0 0 1.164-.595 3.745 3.745 0 0 1 3.332-5.442.653.653 0 0 0 0-1.306 5.028 5.028 0 0 0-3.512 1.429 9.562 9.562 0 0 0-5.037-1.429c-.159 0-.311.013-.466.021a6.8 6.8 0 0 1 6.086-6.599c.077-.008.144-.042.217-.06a7.135 7.135 0 0 0 4.229 6.185.652.652 0 0 0-.031.217l.142 2.442h-.575c-.855 0-1.55.696-1.55 1.55v7.654c0 .85.696 1.54 1.55 1.54h2.7v13.937zm4.001-23.375c.134 0 .243.11.243.244v7.654a.236.236 0 0 1-.243.234H21.65a.237.237 0 0 1-.244-.234v-7.654c0-.134.11-.244.244-.244h.652l.169 2.9c.097 1.528 1.208 2.725 2.53 2.725.679 0 1.308-.299 1.759-.829.451-.501.725-1.174.77-1.9l.169-2.896h.652zm-2.124 2.818a1.836 1.836 0 0 1-.449 1.118c-.212.247-.487.384-.777.384-.634 0-1.173-.66-1.226-1.499l-.37-6.356a7.12 7.12 0 0 0 1.596.187 7.12 7.12 0 0 0 1.596-.186l-.37 6.352zM25 15.573a5.832 5.832 0 0 1-5.826-5.826A5.832 5.832 0 0 1 25 3.922a5.831 5.831 0 0 1 5.825 5.825A5.831 5.831 0 0 1 25 15.573z"/><path d="M31.259 31.237c.376 0 .738.076 1.077.225a.654.654 0 0 0 .526-1.196 3.991 3.991 0 0 0-5.589 3.652c0 1.39.706 2.657 1.887 3.39a.654.654 0 0 0 .689-1.111 2.664 2.664 0 0 1-1.27-2.279 2.683 2.683 0 0 1 2.68-2.681z"/></g></svg>