<svg version="1" xmlns="http://www.w3.org/2000/svg" viewBox="0 0 50 50"><path fill="#A6C1C2" d="M9.83 42.107L47.622 28.35a23.1 23.1 0 0 0 .247-3.35C47.87 12.37 37.63 2.13 25 2.13S2.13 12.37 2.13 25c0 6.808 2.978 12.917 7.7 17.107z"/><path fill="#B9D7D9" d="M37.745 5.965a22.758 22.758 0 0 0-12.61-3.793c-10.37 0-19.12 6.903-21.925 16.362L37.745 5.965z"/><path fill="#444" d="M25 2.13C11.7 2.13.88 12.95.88 26.25S11.7 50.369 25 50.369c4.769 0 9.38-1.39 13.335-4.019.469-.312.641-.882.487-1.395 0-.009.004-.018.003-.027-.125-1.405-.774-2.701-1.928-3.854-.905-.901-2.019-1.582-3.095-2.24-1.703-1.041-3.453-2.126-4.491-4.132 2.98-2.113 5.697-6.047 5.697-10.559 0-6.732-4.49-12.209-10.008-12.209S14.991 17.41 14.991 24.143c0 4.512 2.715 8.444 5.695 10.558-1.032 2.004-2.781 3.089-4.483 4.13-1.078.659-2.192 1.341-3.096 2.244a6.884 6.884 0 0 0-1.477 2.145c-5.019-3.962-8.25-10.094-8.25-16.97C3.38 14.329 13.079 4.63 25 4.63s21.619 9.699 21.619 21.62c0 1.062-.078 2.127-.23 3.168a1.25 1.25 0 0 0 1.055 1.418 1.245 1.245 0 0 0 1.418-1.055c.17-1.161.257-2.349.257-3.531 0-13.3-10.82-24.12-24.119-24.12zm-8.509 22.013c0-5.905 3.816-10.709 8.508-10.709s8.508 4.804 8.508 10.709c0 5.704-5.303 10.709-8.508 10.709-3.205 0-8.508-5.006-8.508-10.709zm-2.323 17.992c.777-.777 1.769-1.383 2.818-2.024 1.769-1.082 3.75-2.314 4.978-4.623 1.057.552 2.105.865 3.036.865.93 0 1.977-.312 3.034-.863 1.234 2.31 3.216 3.542 4.986 4.624 1.049.642 2.04 1.247 2.818 2.022.643.643 1.075 1.332 1.307 2.054-.064.028-.133.039-.193.079a21.523 21.523 0 0 1-11.951 3.601 21.495 21.495 0 0 1-12.126-3.73c.237-.701.661-1.373 1.293-2.005z"/></svg>